# xmcd
#
# Track frame offsets: 
#        150
#        18256
#        34122
#        52597
#        70357
#        80926
#        100882
#        115859
#        137893
#        151231
#
# Disc length: 2279 seconds
#
# Revision: 0
# Processed by: cddbd v1.5.2PL0 Copyright (c) Steve Scherf et al.
# Submitted via: ExactAudioCopy v0.99pb5
#
DISCID=7d08e50a
DTITLE=The Swingin' Johnsons - Size Matters
DYEAR=2008
DGENRE=Blues
TTITLE0=The Swingin' Johnsons - Size Matters - 01 - Born Under a Bad S
TTITLE0=ign
TTITLE1=The Swingin' Johnsons - Size Matters - 02 - Why Get Up?
TTITLE2=The Swingin' Johnsons - Size Matters - 03 - Playthang
TTITLE3=The Swingin' Johnsons - Size Matters - 04 - Good Day For The B
TTITLE3=lues
TTITLE4=The Swingin' Johnsons - Size Matters - 05 - Hole In My Head
TTITLE5=The Swingin' Johnsons - Size Matters - 06 - A Fool For Your St
TTITLE5=ockings
TTITLE6=The Swingin' Johnsons - Size Matters - 07 - Shape I'm In
TTITLE7=The Swingin' Johnsons - Size Matters - 08 - 'Cause We Ended As
TTITLE7=Lovers
TTITLE8=The Swingin' Johnsons - Size Matters - 09 - Everyday I Have Th
TTITLE8=e Blues
TTITLE9=The Swingin' Johnsons - Size Matters - 10 -Coast to Coast
EXTD=
EXTT0=
EXTT1=
EXTT2=
EXTT3=
EXTT4=
EXTT5=
EXTT6=
EXTT7=
EXTT8=
EXTT9=
PLAYORDER=
